<?xml version="1.0" encoding="UTF-8" standalone="no"?>
<!-- Generator: Adobe Illustrator 23.0.2, SVG Export Plug-In . SVG Version: 6.00 Build 0)  -->

<svg
   xmlns:dc="http://purl.org/dc/elements/1.1/"
   xmlns:cc="http://creativecommons.org/ns#"
   xmlns:rdf="http://www.w3.org/1999/02/22-rdf-syntax-ns#"
   xmlns:svg="http://www.w3.org/2000/svg"
   xmlns="http://www.w3.org/2000/svg"
   xmlns:sodipodi="http://sodipodi.sourceforge.net/DTD/sodipodi-0.dtd"
   xmlns:inkscape="http://www.inkscape.org/namespaces/inkscape"
   version="1.1"
   x="0px"
   y="0px"
   viewBox="0 0 271.60001 260.29999"
   xml:space="preserve"
   id="svg993"
   sodipodi:docname="UXSocietyLogo_icon.svg"
   inkscape:version="0.92.4 (unknown)"
   width="271.60001"
   height="260.29999"><metadata
   id="metadata999"><rdf:RDF><cc:Work
       rdf:about=""><dc:format>image/svg+xml</dc:format><dc:type
         rdf:resource="http://purl.org/dc/dcmitype/StillImage" /><dc:title></dc:title></cc:Work></rdf:RDF></metadata><defs
   id="defs997">
	
	
</defs><sodipodi:namedview
   pagecolor="#ffffff"
   bordercolor="#666666"
   borderopacity="1"
   objecttolerance="10"
   gridtolerance="10"
   guidetolerance="10"
   inkscape:pageopacity="0"
   inkscape:pageshadow="2"
   inkscape:window-width="1920"
   inkscape:window-height="1007"
   id="namedview995"
   showgrid="false"
   showborder="false"
   inkscape:zoom="1.8181818"
   inkscape:cx="120.45069"
   inkscape:cy="95.289643"
   inkscape:window-x="0"
   inkscape:window-y="0"
   inkscape:window-maximized="1"
   inkscape:current-layer="svg993" />
<style
   type="text/css"
   id="style927">
	.st0{fill:#008ED4;}
	.st1{fill:#FFFFFF;}
	.st2{fill:none;}
	.st3{fill:#80848A;}
</style>
<g
   id="box"
   transform="translate(-18.5,-17.8)">
		<path
   style="fill:#008ed4"
   inkscape:connector-curvature="0"
   id="path929"
   d="m 235.8,17.8 h -163 c -30,0 -54.3,24.3 -54.3,54.3 v 151.7 c 0,30 24.3,54.3 54.3,54.3 h 163 c 30,0 54.3,-24.3 54.3,-54.3 V 72.1 c 0,-30 -24.3,-54.3 -54.3,-54.3 z"
   class="st0" />
		<path
   style="fill:#ffffff"
   inkscape:connector-curvature="0"
   id="path931"
   d="m 153.7,141.2 c 0,0 -11.1,-3.6 -11.1,-10 V 114 c 0,-37.2 -22.9,-44.4 -38.9,-45.3 -1.7,-0.2 -3,0.9 -3.1,2.6 -0.3,4.7 -0.5,8.4 -0.8,13.2 0,1.2 1.1,2.6 2.2,3 10.9,2.8 17.1,11.2 17.1,26.5 0,10.9 0,12.5 0,14.2 0,12.3 13.2,19.9 13.2,19.9 v 0.6 c -4,1.7 -13.2,7.5 -13.2,18.7 0,2.2 0,4.5 0,14.6 0,15.3 -6.2,23.7 -17.1,26.5 -1.1,0.3 -2.2,1.7 -2.2,3 0.2,5.4 0.2,8.6 0.8,13.2 0.1,1.6 1.5,2.8 3.1,2.7 16,-0.9 38.9,-8.1 38.9,-45.3 v -16.2 c 0,-7 7,-9.2 10.8,-10 1.2,-0.2 2.3,-1.6 2.3,-2.8 v -9 c 0.1,-1.3 -1,-2.6 -2,-2.9 z"
   class="st1" />
		<path
   style="fill:#ffffff"
   inkscape:connector-curvature="0"
   id="path933"
   d="m 219.2,208.5 c -10.9,-2.8 -17.1,-11.2 -17.1,-26.5 0,-10.1 0,-12.5 0,-14.6 0,-11.2 -9.2,-17 -13.2,-18.7 v -0.6 c 0,0 13.2,-7.6 13.2,-19.9 0,-1.7 0,-3.3 0,-14.2 0,-15.2 6.2,-23.7 17.1,-26.5 1.1,-0.3 2.2,-1.7 2.2,-3 -0.3,-4.8 -0.5,-8.6 -0.8,-13.2 -0.2,-1.7 -1.4,-2.8 -3.1,-2.6 -16,0.9 -38.9,8.1 -38.9,45.3 v 17.3 c 0,6.4 -11.1,10 -11.1,10 -0.9,0.3 -2,1.6 -2,2.8 v 9 c 0,1.2 1.1,2.6 2.3,2.8 3.7,0.8 10.7,3 10.7,10 V 182 c 0,37.2 22.9,44.4 38.9,45.3 1.6,0.2 3,-1.1 3.1,-2.7 0.6,-4.7 0.6,-7.8 0.8,-13.2 0.1,-1.2 -1,-2.6 -2.1,-2.9 z"
   class="st1" />
		<path
   style="fill:#ffffff"
   inkscape:connector-curvature="0"
   id="path935"
   d="m 103.3,111.7 c 0,-1.1 -1,-2.1 -2,-2.1 H 88 c -1.2,0 -2.1,1 -2.1,2.1 v 43.8 c 0,7.6 -5.7,13.6 -13.5,13.6 -7.7,0 -13.3,-6 -13.3,-13.6 v -43.8 c 0,-1.1 -0.9,-2.1 -2,-2.1 H 43.8 c -1.1,0 -2.1,1 -2.1,2.1 v 44.6 c 0,16.4 13.7,30 30.7,30 17.1,0 30.9,-13.6 30.9,-30 z"
   class="st1" />
		<path
   style="fill:#ffffff"
   inkscape:connector-curvature="0"
   id="path937"
   d="m 246.8,139.8 c -8.6,-3.5 -11.9,-6.6 -11.9,-10.6 0,-3 2.9,-5.6 6.9,-5.6 6.7,0 14.7,6 15.7,6.6 1,0.8 3,-0.2 3.7,-1.4 l 5.6,-8.4 c 0.4,-0.8 0.7,-2.7 -0.7,-3.5 -3.3,-2.4 -12.1,-8.2 -23.5,-8.2 -16.9,0 -25.3,11 -25.3,21.8 0,13.1 11.8,20.5 21.3,24.2 7.5,3 11.3,6.5 11.3,11.1 0,3.8 -3.2,6.6 -7.6,6.6 -7.2,0 -15.1,-5.8 -15.6,-6 -0.8,-0.5 -2.9,-0.8 -3.7,0.7 l -5.2,9.1 c -0.9,1.5 -0.5,2 0.6,3.1 2.5,2.5 10.4,8.4 24.7,8.4 16.1,0 25.9,-11.4 25.9,-22.7 -0.1,-15.1 -13.6,-21.8 -22.2,-25.2 z"
   class="st1" />
	</g>
<g
   id="alternate"
   transform="translate(-18.5,-17.8)">
</g>
</svg>